name Walk10.mot
datacolumns 19
datarows 30
range 1.99700000 2.02600000
endheader

                time	   L_ground_force_vx	   L_ground_force_vy	   L_ground_force_vz	   L_ground_force_px	   L_ground_force_py	   L_ground_force_pz	   R_ground_force_vx	   R_ground_force_vy	   R_ground_force_vz	   R_ground_force_px	   R_ground_force_py	   R_ground_force_pz	   L_ground_torque_x	   L_ground_torque_y	   L_ground_torque_z	   R_ground_torque_x	   R_ground_torque_y	   R_ground_torque_z	
          1.99700000	          0.00000000	          0.00000000	          0.00000000	          0.00000000	          0.00000000	          0.00000000	        -19.60044338	        676.17415016	        -42.46075674	          0.28891667	          0.00000000	          0.07710766	          0.00000000	          0.00000000	          0.00000000	          0.00000000	          4.93604125	          0.00000000	
          1.99800000	          0.00000000	          0.00000000	          0.00000000	          0.00000000	          0.00000000	          0.00000000	        -19.27353853	        674.92923197	        -42.48224985	          0.28949939	          0.00000000	          0.07719283	          0.00000000	          0.00000000	          0.00000000	          0.00000000	          4.86340416	          0.00000000	
          1.99900000	          0.00000000	          0.00000000	          0.00000000	          0.00000000	          0.00000000	          0.00000000	        -18.93237728	        673.73630868	        -42.49776125	          0.29008139	          0.00000000	          0.07729142	          0.00000000	          0.00000000	          0.00000000	          0.00000000	          4.79074457	          0.00000000	
          2.00000000	          0.00000000	          0.00000000	          0.00000000	          0.00000000	          0.00000000	          0.00000000	        -18.57355094	        672.56946384	        -42.52388063	          0.29065113	          0.00000000	          0.07739259	          0.00000000	          0.00000000	          0.00000000	          0.00000000	          4.72379975	          0.00000000	
          2.00100000	          0.00000000	          0.00000000	          0.00000000	          0.00000000	          0.00000000	          0.00000000	        -18.20539866	        671.39219218	        -42.57417123	          0.29119613	          0.00000000	          0.07748460	          0.00000000	          0.00000000	          0.00000000	          0.00000000	          4.66608772	          0.00000000	
          2.00200000	          0.00000000	          0.00000000	          0.00000000	          0.00000000	          0.00000000	          0.00000000	        -17.84474107	        670.17904018	        -42.65016786	          0.29170725	          0.00000000	          0.07756518	          0.00000000	          0.00000000	          0.00000000	          0.00000000	          4.61811780	          0.00000000	
          2.00300000	          0.00000000	          0.00000000	          0.00000000	          0.00000000	          0.00000000	          0.00000000	        -17.50811218	        668.94333992	        -42.74745478	          0.29218344	          0.00000000	          0.07764569	          0.00000000	          0.00000000	          0.00000000	          0.00000000	          4.58025932	          0.00000000	
          2.00400000	          0.00000000	          0.00000000	          0.00000000	          0.00000000	          0.00000000	          0.00000000	        -17.20169462	        667.71817831	        -42.85956300	          0.29263906	          0.00000000	          0.07773596	          0.00000000	          0.00000000	          0.00000000	          0.00000000	          4.55294713	          0.00000000	
          2.00500000	          0.00000000	          0.00000000	          0.00000000	          0.00000000	          0.00000000	          0.00000000	        -16.91707097	        666.52304327	        -42.97418017	          0.29310514	          0.00000000	          0.07783405	          0.00000000	          0.00000000	          0.00000000	          0.00000000	          4.53426643	          0.00000000	
          2.00600000	          0.00000000	          0.00000000	          0.00000000	          0.00000000	          0.00000000	          0.00000000	        -16.63801700	        665.35072511	        -43.07411748	          0.29361882	          0.00000000	          0.07793072	          0.00000000	          0.00000000	          0.00000000	          0.00000000	          4.51862155	          0.00000000	
          2.00700000	          0.00000000	          0.00000000	          0.00000000	          0.00000000	          0.00000000	          0.00000000	        -16.35236654	        664.17219244	        -43.14466280	          0.29419845	          0.00000000	          0.07801749	          0.00000000	          0.00000000	          0.00000000	          0.00000000	          4.49881024	          0.00000000	
          2.00800000	          0.00000000	          0.00000000	          0.00000000	          0.00000000	          0.00000000	          0.00000000	        -16.05705160	        662.94895401	        -43.17964790	          0.29482528	          0.00000000	          0.07808733	          0.00000000	          0.00000000	          0.00000000	          0.00000000	          4.46902483	          0.00000000	
          2.00900000	          0.00000000	          0.00000000	          0.00000000	          0.00000000	          0.00000000	          0.00000000	        -15.75436258	        661.65432005	        -43.18234801	          0.29545951	          0.00000000	          0.07813101	          0.00000000	          0.00000000	          0.00000000	          0.00000000	          4.42460698	          0.00000000	
          2.01000000	          0.00000000	          0.00000000	          0.00000000	          0.00000000	          0.00000000	          0.00000000	        -15.44898331	        660.30586497	        -43.16907787	          0.29607125	          0.00000000	          0.07814696	          0.00000000	          0.00000000	          0.00000000	          0.00000000	          4.36319479	          0.00000000	
          2.01100000	          0.00000000	          0.00000000	          0.00000000	          0.00000000	          0.00000000	          0.00000000	        -15.15068619	        658.98566717	        -43.16773391	          0.29664700	          0.00000000	          0.07815439	          0.00000000	          0.00000000	          0.00000000	          0.00000000	          4.28860988	          0.00000000	
          2.01200000	          0.00000000	          0.00000000	          0.00000000	          0.00000000	          0.00000000	          0.00000000	        -14.87293959	        657.80073720	        -43.19847851	          0.29717855	          0.00000000	          0.07818317	          0.00000000	          0.00000000	          0.00000000	          0.00000000	          4.21076573	          0.00000000	
          2.01300000	          0.00000000	          0.00000000	          0.00000000	          0.00000000	          0.00000000	          0.00000000	        -14.62034226	        656.79181679	        -43.25940169	          0.29766781	          0.00000000	          0.07824786	          0.00000000	          0.00000000	          0.00000000	          0.00000000	          4.14178686	          0.00000000	
          2.01400000	          0.00000000	          0.00000000	          0.00000000	          0.00000000	          0.00000000	          0.00000000	        -14.37961424	        655.89388298	        -43.33543590	          0.29813919	          0.00000000	          0.07833190	          0.00000000	          0.00000000	          0.00000000	          0.00000000	          4.09063342	          0.00000000	
          2.01500000	          0.00000000	          0.00000000	          0.00000000	          0.00000000	          0.00000000	          0.00000000	        -14.12738198	        654.99520047	        -43.41270679	          0.29862216	          0.00000000	          0.07839653	          0.00000000	          0.00000000	          0.00000000	          0.00000000	          4.05755056	          0.00000000	
          2.01600000	          0.00000000	          0.00000000	          0.00000000	          0.00000000	          0.00000000	          0.00000000	        -13.84635839	        654.01926122	        -43.48417209	          0.29912961	          0.00000000	          0.07841396	          0.00000000	          0.00000000	          0.00000000	          0.00000000	          4.03415448	          0.00000000	
          2.01700000	          0.00000000	          0.00000000	          0.00000000	          0.00000000	          0.00000000	          0.00000000	        -13.53798733	        652.95146023	        -43.55261147	          0.29966584	          0.00000000	          0.07839356	          0.00000000	          0.00000000	          0.00000000	          0.00000000	          4.00974182	          0.00000000	
          2.01800000	          0.00000000	          0.00000000	          0.00000000	          0.00000000	          0.00000000	          0.00000000	        -13.22434568	        651.81467912	        -43.62737550	          0.30023245	          0.00000000	          0.07837116	          0.00000000	          0.00000000	          0.00000000	          0.00000000	          3.97663506	          0.00000000	
          2.01900000	          0.00000000	          0.00000000	          0.00000000	          0.00000000	          0.00000000	          0.00000000	        -12.93339595	        650.63946561	        -43.70829140	          0.30081620	          0.00000000	          0.07837517	          0.00000000	          0.00000000	          0.00000000	          0.00000000	          3.93192894	          0.00000000	
          2.02000000	          0.00000000	          0.00000000	          0.00000000	          0.00000000	          0.00000000	          0.00000000	        -12.67550846	        649.44570406	        -43.77797721	          0.30138316	          0.00000000	          0.07840294	          0.00000000	          0.00000000	          0.00000000	          0.00000000	          3.87829817	          0.00000000	
          2.02100000	          0.00000000	          0.00000000	          0.00000000	          0.00000000	          0.00000000	          0.00000000	        -12.43764297	        648.25117711	        -43.81698382	          0.30189935	          0.00000000	          0.07843482	          0.00000000	          0.00000000	          0.00000000	          0.00000000	          3.82278242	          0.00000000	
          2.02200000	          0.00000000	          0.00000000	          0.00000000	          0.00000000	          0.00000000	          0.00000000	        -12.20164367	        647.08881202	        -43.82018567	          0.30235426	          0.00000000	          0.07846340	          0.00000000	          0.00000000	          0.00000000	          0.00000000	          3.77219132	          0.00000000	
          2.02300000	          0.00000000	          0.00000000	          0.00000000	          0.00000000	          0.00000000	          0.00000000	        -11.95945414	        645.97915224	        -43.79675203	          0.30275916	          0.00000000	          0.07849139	          0.00000000	          0.00000000	          0.00000000	          0.00000000	          3.72950390	          0.00000000	
          2.02400000	          0.00000000	          0.00000000	          0.00000000	          0.00000000	          0.00000000	          0.00000000	        -11.71202992	        644.90696313	        -43.76008976	          0.30314645	          0.00000000	          0.07851838	          0.00000000	          0.00000000	          0.00000000	          0.00000000	          3.69378417	          0.00000000	
          2.02500000	          0.00000000	          0.00000000	          0.00000000	          0.00000000	          0.00000000	          0.00000000	        -11.46169250	        643.86402968	        -43.72165301	          0.30357194	          0.00000000	          0.07854856	          0.00000000	          0.00000000	          0.00000000	          0.00000000	          3.66223382	          0.00000000	
          2.02600000	          0.00000000	          0.00000000	          0.00000000	          0.00000000	          0.00000000	          0.00000000	        -11.20574302	        642.87949708	        -43.69457081	          0.30408674	          0.00000000	          0.07859201	          0.00000000	          0.00000000	          0.00000000	          0.00000000	          3.63245423	          0.00000000	
